<?xml version="1.0" ?><svg id="Layer_11" style="enable-background:new 0 0 128 128;" version="1.1" viewBox="0 0 128 128" xml:space="preserve" xmlns="http://www.w3.org/2000/svg" xmlns:xlink="http://www.w3.org/1999/xlink"><style type="text/css">
	.st0{fill:#FDC20F;}
	.st1{fill:#F9D069;}
	.st2{fill:#F7EA00;}
	.st3{fill:#3BF24C;}
	.st4{fill:#E50C0C;}
	.st5{fill:#BE872C;}
	.st6{fill:#231F20;}
</style><path class="st0" d="M34.8,40.3c0.5,1.6,1.9,2.4,2.1,2.8c3.8,3.2,11.1,4.4,15.1,5.1c6.2,1.1,12.7,1.3,19,0.7  c6.2-0.6,13.4-2.9,18.4-6.7c4.4-3.4,2.9-7.3,0.3-11.3c-6.3-8.6-17.4-9.9-27.3-9.6c-6.5,0.2-13.2,1.2-18.8,4.6  C38.9,28.4,33,34.1,34.8,40.3z"/><path class="st1" d="M33.7,39.4c0.6,1.4,2.1,1.9,2.3,2.2c4.1,2.4,11.5,2.8,15.6,3.1c6.3,0.4,12.9,0,19.1-1c6.2-1,13.3-3.6,18-7.3  c4.2-3.3,2.4-6.5-0.5-9.7c-7-6.9-18.2-7-28.2-5.9c-6.5,0.7-13.1,2.2-18.6,5.5C37.1,28.8,31.5,34.3,33.7,39.4z"/><path class="st1" d="M91.8,95.3c-0.1,0.3-0.1,0.7-0.2,1c-2.1,1.8-6.5,5.2-10,6.2c-4.4,1.3-20.9,2-29.5,1.3  c-5.8-0.5-12.5-3.7-16.2-5.8c0-0.1,0-0.1-0.1-0.2c-0.5-1.4-0.8-3.1-0.8-4.9c0.1,0,0.1-0.1,0.1-0.1c2.7,1.7,5.6,2.5,8.3,4.1  c1.7,1,3.1,2.5,5.1,2.6c1.7,0.1,4.3-0.8,5.6-2.6c0.9,1.4,18.9,1.7,24,1.2c1.4-0.1,2.4-2.9,2.5-3.4c2,1.8,5.2,3.5,7.7,2.4  C89.4,96.7,90.6,96,91.8,95.3z"/><path class="st0" d="M91.5,96.3c-2.7,10.7-14.3,12.5-27.4,11.5c-4.8-0.4-9.9-0.7-14.7-1.7c-3.5-0.8-7-2.3-10.1-4.3  c-1.8-1.2-3.1-3.2-3.9-5.3c3.7,2.1,11.5,6.4,17.3,6.9c8.7,0.8,23.2-0.4,27.6-1.6C83.8,100.9,89.4,98.1,91.5,96.3z"/><path class="st2" d="M34.3,71.5c0.7,0.5,3.7,0.6,4.6,1c2,0.9,3.7,3.8,5.9,3.9c2.7,0.2,5.1-1.9,7.9-1.5c2.3,0.3,3.8,1.8,5.9,2.8  c4.2,2,6.6,0,10.6-1.2c2.5-0.8,4.9-0.8,7.5-0.5c2.6,0.3,4.3,0.6,6.7-0.4c1-0.4,1.9-1.3,3-1.7c1.7-0.7,4.7-0.8,6.4-0.9  c0.3-1.5-0.4-5-0.7-6.5c-1.1,0.5-3.6,1.4-4.5,1.8c-8,3.8-14.7,3.6-22.5,0.3c-0.3,0.5-0.7,1-1.2,1.3c-3.4,2.4-9.3,0.5-12.9-0.2  c-5.2-0.9-9.2-0.8-13.7-3.8c-0.3-0.2-2.1-1.5-2.4-1.7C34.3,66.2,32.7,70.1,34.3,71.5z"/><path class="st3" d="M31.2,51.3c2.7,1.1,6.3,1.8,8.8,3.3c2,1.1,4.9,3.1,7,3.7c2.2,0.6,3.4-1.3,5-2.7c1.2-1.1,2.1-0.4,2.8,1.2  c0.6,1.4,2.3,2.8,2.9,4.1c6.9-1.5,13.7-1,20.6-0.6c0.4-1.5,0.8-2.9,1.2-4.3c0.8-2.6,2.5-2.2,4.3-0.3c1.4,1.5,3.5,1.6,5.1,2.8  c3-1.8,6.2-3.6,9.1-5.8c-1.7-1.9-4.4-5-5.9-7.4c-3,2.6-6.7,4-9.9,5.5c-6.7,3-28.5,1.8-40.1-0.7c-2.4-0.5-5.1-1.4-7.2-3  C34.2,48.2,32,50.3,31.2,51.3z"/><path class="st4" d="M35,60.2c7.3,4.8,18.2,8.4,26.9,6.2c0.2-0.8,0.3-2.9,0.3-3.8c-1.7,0.2-3.3,0.3-5,0.6c-1.4,0.3-2.2,0.7-3-0.5  c-0.5-0.8-1.7-2.2-2.2-3c-2.7,1.8-4,3.2-7.9,1c-2.8-1.5-6.3-3.5-9.2-4.7C34.9,56.8,35,59.6,35,60.2z"/><path class="st4" d="M91.9,61.1c-0.6-0.9-1-0.5-1.3-0.4c-3.3,1.9-6,0.2-8.6-1.9c-0.2,0.6-0.7,1.8-0.8,2.5c-0.3,1.4-1.6,2.1-2.8,2  c-4.5-0.2-8.3-0.7-12.8-0.6c0,0.3,0,1.9,0,2.2c6.4,3,12.9,3.5,19.5,0.7c2.3-1,4.8-2.9,7.2-3.6C92,61.7,92,61.4,91.9,61.1z"/><path class="st5" d="M88,83.8c2.2-1,3.2-4.8,3.5-6.9c-2,0.4-4.7,1-6.7,2.1c-4.6,2.4-8.1-0.8-13,0.2c-4.1,0.8-7.4,3.3-11.8,2.2  c-1.9-0.5-2.9-1.1-4.6-2c-2.9-1.5-6-0.8-8.9-0.4c-4.4,0.6-6.9-2.2-10.5-3c1.4,4.9,7.4,8.4,12.5,9.6c5,1.2,11,1.6,16,1.5  c5.4,0,10.8-0.9,16.1-2C82.9,84.7,85.9,84.8,88,83.8z"/><path class="st3" d="M55.4,91.9c0.6,1,1.3,2,1.8,3c0.1,0.2,0.5,0.8,0.8,1.3c0.3,0,5.9-0.4,8.3-0.6c3.4-0.3,6.9-0.6,10.3-1  c0.4-1.7,0.8-3.4,1.7-4.9c0,0,0,0,0,0c-4.8,1-9.7,1.5-14.6,1.5c-3.2,0-6.4-0.1-9.6-0.6C54.7,91,55.1,91.3,55.4,91.9z"/><path class="st3" d="M93.2,85c-1.4,1.1-3.1,2-5.3,2.7c-2.4,0.8-4.9,1.2-7.3,1.8c0.1,0.1,2.3,2.2,3.2,2.9c0.2,0.1,1.2,0.8,1.6,1.3  c0.2-0.1,2-1.2,2.6-1.6c2.5-1.6,5-3.3,7.5-5.1C94.8,86.3,94,85.6,93.2,85z"/><path class="st3" d="M49.7,95.9c1-1.1,2-2.3,2.8-3.6c0.5-0.7,1.3-1.7,2-1.9c-5-0.7-10.1-1.7-14.7-3.6c-1.4-0.6-2.7-1.3-3.8-2.1  c-0.6,0.7-1.5,1.7-2.2,2.3c2.1,1.7,3.8,3,5.9,4.2C42.7,92.8,46.4,94.6,49.7,95.9z"/><path class="st6" d="M101.8,49.1c-2.2,0.1-4.5-3.7-6-5.7c0.5-0.6,0.9-1.3,1.2-2.1c2-4.6,0-9.4-2.6-13.4C88,19.2,78.1,16.1,67.7,15.7  c-12.2-0.5-26.4,1.6-34.6,11.7c-3.3,4-5.2,9.3-3.6,14.4c0.3,1,0.8,2,1.4,2.8c-1.7,1.9-3.6,3.4-6,4.6c-2.2,1.1-1.5,4.4,0.7,5  c1.8,0.5,3.5,1.1,5.2,1.7c0,1.7-0.6,4.2,0,6c-0.1,0.1-0.1,0.2-0.2,0.3c-1.4,3-2.3,6.5-1.2,9.8c0.5,1.4,1.3,2.3,2.2,2.9  c0.1,2.7,0.6,4.9,1.7,6.9c0,0-0.1,0.1-0.1,0.1c-1.3,1.7-2.9,2.4-4.9,2.8c-2.4,0.4-2.6,3.9-0.7,5c1.1,0.6,2.1,1.2,3.2,1.8  c-0.4,3.5,0,7.2,1.4,10.5c1.7,4,5.9,5.4,9.8,7c6.7,2.8,14.5,3.3,21.7,3.6c6.4,0.3,13.8-0.6,19.9-2.2c3.4-0.9,6.9-3.3,9.4-5.7  c3.8-3.6,4.4-6.7,3.8-11.6c0,0,0,0,0-0.1c1.3-1,2.6-1.9,3.8-2.8c1.3-0.9,2.1-3.1,0.6-4.3c-1.7-1.4-3.4-2.7-5.1-4.1  c-0.1-0.1-0.1-0.1-0.2-0.1c0.5-1.6,0.9-3.1,0.8-5.3c0-0.1-0.1-0.6-0.1-0.6c1.6-2.8,0.9-7.4,0.1-10.2c1.6-1.9,0.5-4.5-0.4-6.6  c2.7-1.4,5.4-2.9,7.6-4.8C105.5,52.2,104.1,49,101.8,49.1z M87.4,56.8c-1.6-0.9-3.1-1.9-4.6-3.1c-1.7-1.4-3.8-0.8-4.6,1.2  c-0.4,1.1-0.8,2.2-1.2,3.3c-6.8-0.3-13.4-0.7-20,0.5c-0.6-1-1.2-2-1.7-3.1c-0.6-1.2-2.6-1.8-3.8-1c-1.5,1.1-2.8,2.5-4.9,2  c-2-0.5-4.5-2.5-6.4-3.3c-2.5-1.1-5.1-2-7.7-2.9c0.8-0.7,1.6-1.5,2.4-2.4c2,1.2,4.3,2.1,6.5,2.9c12.5,4.4,28.3,5.3,40.7,0.6  c3.1-1.2,6.6-2.5,9.6-4.5c1.4,1.8,2.8,3.8,4.4,5.3C93.4,54.1,90.3,55.5,87.4,56.8z M88,91.4c-0.6,0.3-2.1,1.2-2.2,1.3  c-0.4-0.4-1.3-0.9-1.4-1c-0.8-0.6-2.7-2-2.8-2.1c2.1-0.5,4.3-1,6.3-1.6c1.9-0.5,3.4-1.3,4.6-2.1c0.7,0.5,1.3,1.1,2,1.6  C92.3,88.8,90.2,90.2,88,91.4z M58.9,95.3c-0.3-0.4-0.7-0.8-0.8-1c-0.5-0.8-1.1-1.6-1.7-2.3c-0.3-0.4-0.6-0.7-1-0.9  c2.9,0.3,5.9,0.4,8.8,0.4c4.5,0,8.9-0.5,13.4-1.2c0,0,0,0,0,0c-0.8,1.1-1.2,2.4-1.6,3.7c-3.1,0.3-6.3,0.5-9.4,0.7  C64.3,95,59.2,95.3,58.9,95.3z M49.2,95.1c-3-1.1-5.9-3.2-8.5-4.6c-1.9-1-3.8-2.1-5.7-3.2c0.6-0.5,1.3-1.1,1.8-1.7  c1,0.7,2.1,1.3,3.4,1.8c4.2,1.7,8.6,2.7,13.1,3.4c-0.6,0.2-1.1,0.6-1.6,1.2C51,93.1,50.1,94.2,49.2,95.1z M64.2,86  c-5.1,0-10.2-0.4-15.1-1.6C44,83.2,38.8,81.9,37.3,77c3.3,1.5,4.9,3.9,9.3,3.3c2.9-0.4,5.1-1.6,8-0.1c1.7,0.9,3.3,2,5.2,2.5  c4.3,1,7.7-1.6,11.8-2.4c4.9-0.9,8.8,2,13.5-0.4c2-1.1,3.7-1.6,5.7-2c-0.3,2-1.2,3.6-3.5,4.6c-2.1,0.9-4.7,1.3-6.9,1.8  C75,85.3,69.6,86,64.2,86z M91.5,68c0.3,1.3,0.4,2.8,0,4.1c-1.7,0.1-3.4,0.2-5.1,0.8c-1.1,0.4-2,1.1-3,1.5c-2.4,0.9-4.1,0.6-6.7,0.4  c-2.6-0.2-5-0.2-7.5,0.4c-4,1-6.5,2.8-10.6,1c-2.1-0.9-3.6-2.2-5.9-2.5c-2.8-0.4-5.2,1.4-7.9,1.3c-2.2-0.1-3.9-2.6-5.9-3.4  c-0.9-0.4-2.9-0.3-3.6-0.8c-1.6-1.2-1-3.7-0.4-5.3c0.3,0.2,0.6,0.3,0.8,0.5c4.6,2.6,9.7,4.4,14.9,5.2c3.6,0.6,9.9,1.7,13.3-0.4  c0.5-0.3,0.9-0.7,1.2-1.2c7.8,2.9,15.1,2.9,23.1-0.4C89.2,68.8,90.4,68.5,91.5,68z M43.5,25.7c5.7-3.3,12.4-4.3,18.8-4.6  c9.9-0.3,21,0.9,27.3,9.6c2.6,4,4.1,7.9-0.3,11.3c-5,3.8-12.2,6.1-18.4,6.7c-6.2,0.6-12.8,0.4-19-0.7c-4-0.7-11.3-1.8-15.1-5.1  c-0.2-0.3-1.6-1.1-2.1-2.8C33,34.1,38.9,28.4,43.5,25.7z M43.8,61.5c3.6,2,5.6,1.3,8.1-0.4c0.4,0.7,0.9,1.4,1.3,2.1  c0.7,1.1,1.9,1.5,3.1,1.3c1.6-0.3,3.1-0.6,4.7-0.7c-0.1,0.8-0.2,1.6-0.3,2.4c-8,2-18-2.2-24.7-6.6c0-0.6,0.1-1.1,0.1-1.7  C38.7,58.9,41.3,60.1,43.8,61.5z M64.2,106.9c-4.7-0.1-9.6-0.6-14.2-1.4c-3.4-0.7-6.8-1.9-9.8-3.6c-1.8-1-2.7-1.6-3.5-3.5  c-0.5-1.2-0.7-2.7-0.7-4.2c2.6,1.5,5.3,2.9,8,4.3c1.6,0.8,3.8,2.4,5.7,2.5c1.7,0.1,3.2-1.2,4.4-2.7c0.9,1.2,1.8,2.2,3,2.5  c1.8,0.6,4.4-0.1,6.2-0.2c4.9-0.4,9.8-0.7,14.8-1.2c1.3-0.1,2.2-0.8,2.7-2c0.1-0.4,0.3-0.8,0.4-1.2c1.9,1.5,4.1,2.6,6.5,1.7  c1.1-0.4,2.2-0.9,3.4-1.5C88.8,106,72.5,107.1,64.2,106.9z M91.3,61.9c-2.2,0.6-4.5,2.2-6.7,3c-6.1,2.3-12.1,1.9-18.1-0.6  c0-0.3,0-0.6,0.1-0.8c4.1,0,8.3,0.3,12.5,0.4c1.2,0,2.4-0.9,2.7-2c0.1-0.5,0.3-1.1,0.5-1.6c2.5,1.8,5,2.9,8.1,1.3  c0.3-0.1,0.5-0.3,0.8-0.4C91.1,61.4,91.2,61.6,91.3,61.9z"/></svg>