<?xml version="1.0" standalone="no"?>
<!DOCTYPE svg PUBLIC "-//W3C//DTD SVG 20010904//EN"
 "http://www.w3.org/TR/2001/REC-SVG-20010904/DTD/svg10.dtd">
<svg version="1.0" xmlns="http://www.w3.org/2000/svg"
 width="16.000000pt" height="16.000000pt" viewBox="0 0 16.000000 16.000000"
 preserveAspectRatio="xMidYMid meet">
<metadata>
Created by potrace 1.11, written by Peter Selinger 2001-2013
</metadata>
<g transform="translate(0.000000,16.000000) scale(0.002286,-0.002286)"
fill="#000000" stroke="none">
<path d="M3180 6130 c-321 -31 -619 -109 -850 -224 -557 -278 -853 -781 -710
-1207 12 -34 32 -78 45 -97 l24 -35 -30 -36 c-41 -50 -153 -137 -249 -195
-114 -68 -142 -123 -106 -209 23 -56 64 -80 224 -132 l151 -48 -4 -176 c-3
-170 -4 -179 -34 -255 -48 -119 -68 -255 -54 -355 15 -98 51 -178 102 -224 35
-32 39 -39 45 -106 9 -88 40 -210 67 -264 l21 -39 -39 -40 c-51 -53 -102 -82
-192 -108 -91 -27 -115 -42 -135 -85 -20 -42 -20 -84 0 -134 16 -41 40 -60
167 -130 l57 -32 0 -134 c0 -265 64 -469 186 -591 158 -158 611 -329 1019
-383 315 -43 747 -61 983 -42 253 20 594 79 747 128 241 77 550 330 635 518
42 93 51 147 49 289 l-1 131 113 85 c119 89 154 129 165 187 11 61 -13 92
-176 223 -140 113 -151 124 -146 149 22 95 37 194 35 246 0 38 6 76 18 105 26
63 25 335 -1 429 -17 63 -17 64 5 115 26 61 23 140 -11 231 -12 33 -24 67 -26
75 -3 11 32 35 119 83 67 37 161 96 209 131 71 53 89 72 103 110 27 70 14 129
-38 182 -35 34 -51 43 -95 49 -33 4 -70 18 -100 38 -43 29 -140 140 -207 237
l-26 38 25 37 c37 55 67 140 79 228 18 132 -17 278 -109 457 -170 330 -536
598 -969 711 -222 57 -341 70 -680 74 -170 2 -353 -1 -405 -5z m740 -306 c401
-48 671 -169 887 -398 136 -143 212 -292 221 -433 4 -78 3 -87 -26 -145 -36
-74 -78 -117 -187 -190 -237 -160 -602 -284 -935 -318 -391 -39 -791 -15
-1245 75 -367 73 -605 184 -702 327 -76 114 -62 294 36 463 68 117 219 265
370 362 76 49 238 125 336 156 342 112 827 151 1245 101z m1281 -1628 l50 -55
-58 -38 c-62 -39 -393 -203 -412 -203 -13 0 -118 67 -223 142 -92 66 -131 77
-191 50 -59 -27 -74 -48 -117 -164 l-38 -103 -74 1 c-592 7 -719 6 -848 -10
-74 -9 -144 -18 -155 -19 -15 -2 -32 20 -75 98 -63 113 -93 137 -168 138 -42
1 -57 -6 -135 -61 -143 -99 -183 -96 -410 33 -124 71 -271 135 -475 207 l-92
33 64 64 63 63 89 -45 c270 -134 664 -243 1069 -294 186 -24 635 -23 805 0
178 25 351 62 482 103 215 68 496 189 622 267 l40 25 68 -88 c37 -49 91 -113
119 -144z m-3161 -850 c300 -153 627 -243 1012 -278 220 -20 394 12 475 88
l36 35 96 -30 c201 -61 327 -81 507 -81 218 0 384 34 669 139 88 32 164 55
169 50 14 -12 13 -186 -1 -200 -6 -6 -51 -15 -100 -20 -113 -12 -181 -32 -268
-79 -38 -21 -104 -46 -145 -56 -68 -16 -91 -17 -275 -6 -276 17 -331 10 -595
-69 -233 -69 -302 -63 -530 51 -63 32 -133 63 -155 69 -70 19 -151 13 -292
-24 -205 -53 -231 -49 -374 57 -121 90 -133 95 -221 109 -102 16 -131 30 -152
74 -14 30 -17 54 -13 109 5 72 21 130 35 124 4 -2 59 -30 122 -62z m52 -1075
c87 -48 252 -109 403 -150 116 -32 352 -81 388 -81 19 0 16 -5 -19 -38 -23
-20 -56 -57 -74 -82 -19 -25 -49 -62 -68 -82 l-34 -36 -75 33 c-40 19 -158 83
-261 143 -103 60 -242 140 -310 178 l-122 68 42 43 c23 24 45 43 49 43 4 0 40
-18 81 -39z m3032 -24 l40 -34 -190 -113 c-104 -62 -210 -125 -235 -140 l-46
-28 -113 83 -112 84 43 10 c262 64 371 98 454 141 98 50 97 50 159 -3z m-907
-229 c-14 -24 -33 -68 -42 -98 -10 -30 -18 -56 -19 -57 -1 -1 -96 -9 -211 -18
-190 -14 -464 -36 -652 -51 l-71 -6 -58 78 c-31 44 -71 94 -88 113 l-31 33
135 -7 c326 -17 638 -5 912 35 68 9 129 18 136 19 8 1 5 -14 -11 -41z m-2187
-204 c87 -50 496 -267 565 -301 125 -60 214 -44 313 56 l49 50 49 -50 c84 -86
142 -104 295 -88 52 5 236 20 409 34 498 41 594 51 628 69 37 19 78 70 87 109
11 40 20 41 71 6 121 -83 228 -89 382 -20 51 22 95 41 97 41 8 0 -34 -99 -60
-140 -110 -174 -356 -307 -685 -370 -249 -48 -731 -64 -1040 -36 -479 45 -683
97 -966 244 -119 62 -166 105 -205 187 -33 70 -62 235 -41 235 4 0 27 -12 52
-26z"/>
</g>
</svg>
